<svg xmlns="http://www.w3.org/2000/svg" fill="none" height="32" viewBox="0 0 296 160" width="59"><g clip-path="url(#clip0)"><path d="M165.934 125.519c4.735 0 6.364 2.406 6.364 5.2v8.925c0 2.717-1.629 5.2-6.364 5.2h-7.14v-19.247h7.14v-.078zm-3.492 16.066h3.104c2.484 0 3.105-1.009 3.105-2.794v-7.141c0-1.862-.699-2.794-3.105-2.794h-3.104v12.729zm13.814-16.066h11.797v3.182h-8.149v4.657h7.528v3.182h-7.528v4.967h8.149v3.182h-11.797v-19.17zm3.958-3.182a53.811 53.811 0 003.803-2.561l1.319 2.173c-1.319.931-2.328 1.552-3.88 2.406l-1.242-2.018zm11.565 22.43v-19.248h7.606c3.648 0 5.123 1.475 5.123 4.113v2.018c0 1.553-.699 2.484-2.096 3.105 1.785.388 2.794 1.707 2.794 3.57v2.018c0 2.716-1.785 4.424-5.277 4.424h-8.15zm9.003-14.669c0-1.086-.543-1.552-1.94-1.552h-3.493v5.045h3.493c1.397 0 1.94-.699 1.94-1.785v-1.708zm.699 8.305c0-1.32-.543-1.941-2.018-1.941h-4.036v5.278h3.725c1.63 0 2.329-.466 2.329-1.863v-1.474zm10.71-12.884h-3.648v19.248h3.648v-19.248zm8.382 3.182h-5.355v-3.182h14.358v3.182h-5.355v16.066h-3.648v-16.066zm25.534 10.401c0 3.182-1.863 5.898-7.296 5.898s-7.295-2.716-7.295-5.898v-7.995c0-3.182 1.862-5.898 7.295-5.898s7.296 2.716 7.296 5.898v7.995zm-10.944-.156c0 1.785.932 2.95 3.648 2.95 2.717 0 3.648-1.087 3.648-2.95v-7.528c0-1.785-.931-2.949-3.648-2.949-2.716 0-3.648 1.086-3.648 2.949v7.528zM0 115.197h276.842c10.865 0 19.636-8.77 19.636-19.636V15H0v100.197z" fill="#01568C"></path><path d="M157.165 70.57l-6.131-19.17-5.976 19.17h12.107zm-.388-25.457l13.737 40.591H161.9l-2.717-8.382H143.04l-2.794 8.382h-8.615l12.651-37.486c.62-1.863 2.328-3.105 4.346-3.105h8.149zm39.193 30.269c0 2.95-1.552 3.958-5.277 3.958h-8.46V68.242h9.158c3.26 0 4.579 1.319 4.579 4.113v3.027zM182.233 51.4h7.917c3.026 0 4.346 1.009 4.346 3.26v3.57c0 2.406-1.164 3.803-4.346 3.803h-7.839V51.4h-.078zm15.6 13.116c3.337-1.32 4.812-3.26 4.812-6.597v-4.19c0-5.511-3.337-8.616-11.564-8.616h-17.152v40.591h18.316c7.917 0 11.875-3.57 11.875-9.313v-4.346c.077-3.959-2.251-6.753-6.287-7.529zm-81.26-13.737h11.797v-2.95a4.008 4.008 0 00-4.036-4.035h-7.839c-10.477.155-15.057 4.424-15.057 11.797V73.83c0 7.373 4.502 11.642 15.135 11.72h11.409V82.6a4.008 4.008 0 00-4.036-4.036h-7.373c-5.123-.155-6.908-1.94-6.908-6.131V56.91c.078-4.113 1.785-5.976 6.908-6.131zm139.546 28.096V44.493h-3.647a4.538 4.538 0 00-4.579 4.579v36.633h26.155v-6.83h-17.929zm-24.525-8.305l-6.053-19.17-5.976 19.17h12.029zm-.31-25.457l13.737 40.591h-8.615l-2.716-8.382h-16.143l-2.794 8.382h-8.615L218.4 49.382a6.247 6.247 0 015.899-4.269h6.985zM56.735 32.54l30.036 29.57a4.126 4.126 0 010 5.976L56.735 97.58V81.048l14.126-13.97a2.951 2.951 0 000-4.192l-14.126-13.97V32.54zm-5.588 0L21.11 62.11a4.126 4.126 0 000 5.976L51.147 97.58V81.048L37.02 67.078a2.951 2.951 0 010-4.192l14.126-13.97V32.54z" fill="#fff"></path></g></svg>