<svg xmlns="http://www.w3.org/2000/svg" height="32" viewBox="0 0 40.938 40" width="32"><path d="M12.386 35.745v-2.108a1.248 1.248 0 0 0-1.317-1.332 1.301 1.301 0 0 0-1.181.597 1.233 1.233 0 0 0-1.11-.597 1.11 1.11 0 0 0-.984.499v-.415h-.73v3.355H7.8v-1.859a.783.783 0 0 1 .822-.892c.485 0 .731.316.731.886v1.866h.738v-1.859a.79.79 0 0 1 .681-.887c.047-.006.094-.008.142-.006.498 0 .737.316.737.886v1.866h.735zm4.111-1.676v-1.676h-.737v.407a1.272 1.272 0 0 0-1.055-.492 1.757 1.757 0 1 0 0 3.514c.41.016.803-.167 1.055-.492v.408h.73l.007-1.669zm-2.716 0a1.016 1.016 0 1 1 1.018 1.075 1.004 1.004 0 0 1-1.028-.981c0-.031 0-.062.002-.094h.008zm18.332-1.757c.241 0 .479.045.703.134a1.709 1.709 0 0 1 .952.932 1.86 1.86 0 0 1 0 1.406 1.714 1.714 0 0 1-.952.932c-.463.18-.978.18-1.44 0a1.713 1.713 0 0 1-.945-.932 1.86 1.86 0 0 1 0-1.406 1.721 1.721 0 0 1 .945-.932c.231-.096.479-.145.73-.144l.007.01zm0 .703a1.088 1.088 0 0 0-.418.077.994.994 0 0 0-.334.221 1.028 1.028 0 0 0-.221.352 1.225 1.225 0 0 0 0 .872c.049.131.124.25.221.351.096.096.209.171.334.222a1.14 1.14 0 0 0 1.185-.222c.097-.101.173-.22.222-.351a1.225 1.225 0 0 0 0-.872 1.04 1.04 0 0 0-.222-.352 1.004 1.004 0 0 0-.352-.221 1.1 1.1 0 0 0-.422-.099l.007.022zm-11.644 1.054c0-1.054-.654-1.757-1.593-1.757a1.757 1.757 0 0 0 .05 3.514c.5.017.989-.15 1.374-.471l-.352-.542a1.6 1.6 0 0 1-.978.352.93.93 0 0 1-1.004-.822h2.491c.012-.088.012-.176.012-.274zm-2.499-.296a.865.865 0 0 1 .882-.812c.46-.01.841.355.851.814l-1.733-.002zm5.573-.526a2.158 2.158 0 0 0-1.055-.288c-.4 0-.639.147-.639.394 0 .246.253.288.568.33l.352.049c.731.105 1.174.415 1.174 1.005s-.562 1.096-1.528 1.096a2.416 2.416 0 0 1-1.451-.436l.352-.569c.322.239.716.363 1.117.352.499 0 .766-.147.766-.408 0-.19-.189-.295-.59-.352l-.352-.049c-.752-.105-1.159-.443-1.159-.991 0-.667.548-1.075 1.405-1.075.479-.016.954.106 1.366.352l-.326.59zm3.514-.19h-1.191v1.515c0 .351.12.562.485.562.229-.007.45-.073.646-.189l.211.625a1.716 1.716 0 0 1-.913.26c-.865 0-1.167-.464-1.167-1.244v-1.528h-.682v-.667h.682v-1.02h.737v1.02h1.191v.666zm2.527-.752c.177 0 .353.031.52.091l-.225.703a1.195 1.195 0 0 0-.457-.084c-.478 0-.703.309-.703.864v1.88h-.73v-3.356h.724v.408a.992.992 0 0 1 .886-.492l-.015-.014zm5.053 2.951c.046 0 .091.008.134.024a.334.334 0 0 1 .182.175.326.326 0 0 1-.182.435.325.325 0 0 1-.134.028.35.35 0 0 1-.316-.204.335.335 0 0 1 0-.26.35.35 0 0 1 .182-.175.334.334 0 0 1 .116-.024h.018zm0 .594a.255.255 0 0 0 .183-.077.26.26 0 1 0-.369-.365.258.258 0 0 0 0 .351c.049.05.115.078.186.078v.013zm.021-.418a.144.144 0 0 1 .091.028.09.09 0 0 1 .032.074.084.084 0 0 1-.025.063.119.119 0 0 1-.073.032l.102.116h-.081l-.095-.116h-.031v.116h-.068v-.323l.148.01zm-.078.06v.084h.078a.075.075 0 0 0 .042 0 .036.036 0 0 0 0-.032.036.036 0 0 0 0-.032.075.075 0 0 0-.042 0l-.078-.02z"></path><path d="M39.729 24.57v-.394h.165v-.084h-.418v.084h.165v.408zm.811 0v-.492h-.126l-.147.352-.147-.352h-.131v.492h.092v-.369l.137.32h.096l.137-.32v.373zm.394-7.836c-.001 6.987-5.666 12.649-12.653 12.647-2.833 0-5.584-.953-7.812-2.703 5.492-4.317 6.446-12.27 2.129-17.764a12.65 12.65 0 0 0-2.129-2.129c8.001-6.347 20.41-.86 20.469 9.944z" fill="#0099DF"></path><path d="M15.637 16.734a12.627 12.627 0 0 1 4.832-9.948C14.975 2.468 7.021 3.422 2.705 8.915c-4.317 5.494-3.364 13.446 2.129 17.764a12.653 12.653 0 0 0 15.635 0 12.626 12.626 0 0 1-4.832-9.945z" fill="#D32011"></path><path d="M22.598 8.915a12.65 12.65 0 0 0-2.129-2.129 12.627 12.627 0 0 0-4.832 9.948 12.626 12.626 0 0 0 4.832 9.945c5.492-4.318 6.446-12.27 2.129-17.764z" fill="#6C6BBD"></path></svg>