<svg xmlns="http://www.w3.org/2000/svg" height="32" viewBox="0 0 76.361 40" width="61"><path d="M15.676 16.707c.021-4.049 1.943-7.632 4.879-9.939a12.578 12.578 0 0 0-7.807-2.756C5.738 3.973.039 9.61 0 16.62c-.039 7.013 5.598 12.714 12.607 12.753a12.59 12.59 0 0 0 7.836-2.672 12.649 12.649 0 0 1-4.767-9.994z" fill="#E31021"></path><path d="M41.031 16.848c-.039 7.013-5.738 12.651-12.75 12.612a12.595 12.595 0 0 1-7.805-2.759c2.973-2.304 4.857-5.888 4.879-9.94.023-4.049-1.859-7.653-4.77-9.992A12.578 12.578 0 0 1 28.421 4.1c7.013.038 12.649 5.776 12.61 12.748z" fill="#F49D1E"></path><path d="M20.586 6.769h-.031c-2.936 2.307-4.857 5.89-4.879 9.939a12.65 12.65 0 0 0 4.768 9.994h.033c2.973-2.304 4.857-5.888 4.879-9.94.023-4.05-1.86-7.654-4.77-9.993z" fill="#EA611C"></path><path d="M7.363 35.754l.012-2.114c.004-.809-.488-1.341-1.332-1.345-.428-.002-.885.135-1.203.591-.244-.388-.598-.601-1.125-.604a1.149 1.149 0 0 0-.99.489l.004-.425-.74-.004-.02 3.383.74.004.01-1.866c.004-.602.324-.883.816-.88s.736.324.732.889l-.01 1.866.744.004.01-1.866c.004-.602.355-.883.814-.88.496.003.74.324.738.889l-.01 1.865.81.004zm10.967-3.322l-1.195-.007.006-1.019-.736-.004-.006 1.019-.674-.004-.002.671.674.004-.01 1.547c-.004.776.307 1.235 1.148 1.24.322.002.676-.1.92-.239l-.203-.634a1.18 1.18 0 0 1-.639.168c-.355-.002-.492-.213-.49-.562l.01-1.516 1.193.007.004-.671zm6.274-.035a.989.989 0 0 0-.885.489l.002-.425-.738-.004-.02 3.383.74.004.01-1.901c.004-.566.252-.879.707-.877.145.001.318.033.463.073l.213-.708c-.143-.032-.354-.033-.492-.034zm-9.479.3c-.348-.246-.84-.356-1.367-.359-.848-.005-1.414.413-1.418 1.081-.002.566.414.887 1.158.998l.35.037c.389.07.598.175.596.354-.002.246-.283.423-.777.42a1.932 1.932 0 0 1-1.123-.362l-.355.562c.385.285.912.429 1.441.432.984.005 1.551-.451 1.555-1.086.002-.596-.453-.917-1.154-1.026l-.354-.039c-.316-.035-.564-.105-.562-.317 0-.248.25-.385.641-.383.42.002.84.18 1.055.285l.314-.597zm19.654-.243a.98.98 0 0 0-.877.489l.002-.425-.744-.004-.018 3.383.744.004.01-1.901c.004-.566.248-.88.705-.877.143 0 .318.033.453.073l.221-.708c-.14-.032-.351-.033-.496-.034zm-9.447 1.705c-.006 1.026.695 1.767 1.785 1.773.492.002.848-.099 1.205-.38l-.354-.601c-.281.211-.564.313-.885.312-.594-.003-1.016-.429-1.012-1.099.002-.633.432-1.055 1.025-1.083.318.002.6.108.881.319l.359-.593c-.355-.284-.709-.393-1.201-.396-1.088-.005-1.799.731-1.803 1.748zm6.832.038l.008-1.688-.738-.004-.002.425c-.242-.322-.596-.498-1.053-.5-.947-.005-1.699.73-1.703 1.748-.006 1.026.736 1.767 1.684 1.772.492.003.85-.172 1.059-.483l-.002.42.738.004.009-1.694zm-2.713-.015c.004-.594.396-1.085 1.033-1.082.592.003 1.018.46 1.016 1.093-.004.604-.436 1.091-1.029 1.088-.637-.039-1.024-.495-1.02-1.099zm-8.826-1.807c-.99-.005-1.697.692-1.703 1.749-.006 1.058.693 1.767 1.719 1.772.492.003.984-.134 1.371-.449l-.346-.53c-.283.211-.639.352-.99.35-.461-.003-.914-.222-1.02-.818l2.504.014v-.283c.045-1.095-.586-1.799-1.535-1.805zm-.004.635c.455.002.771.288.84.815l-1.762-.01c.072-.46.395-.808.922-.805zm18.344 1.225l.018-3.027-.744-.004-.01 1.764c-.244-.322-.59-.498-1.055-.5-.947-.005-1.689.731-1.693 1.749-.006 1.026.727 1.767 1.674 1.772.496.002.848-.172 1.059-.483l-.002.421.746.004.007-1.696zm-2.711-.015c.002-.594.389-1.085 1.023-1.082.604.003 1.02.461 1.016 1.093-.002.604-.426 1.092-1.029 1.088-.635-.039-1.014-.496-1.01-1.099zm-24.731-.137l.01-1.688-.736-.004-.002.425c-.244-.321-.598-.497-1.053-.5-.959-.005-1.697.731-1.703 1.749-.006 1.026.725 1.767 1.684 1.772.49.003.846-.172 1.059-.483l-.004.421.736.004.009-1.696zm-2.75-.015c.004-.594.398-1.086 1.031-1.083.598.003 1.023.461 1.02 1.094-.002.604-.434 1.091-1.031 1.088-.633-.04-1.022-.496-1.02-1.099z"></path><path d="M47.686 22.029l.033-5.727 1.973.011c.445.002.785.032 1.018.088.328.078.607.216.838.415.301.258.525.585.672.982.148.397.221.853.219 1.362-.004.436-.057.82-.16 1.156s-.234.612-.395.832-.336.391-.525.517a2.087 2.087 0 0 1-.684.284 3.995 3.995 0 0 1-.922.092l-2.067-.012zm.761-.672l1.223.007c.379.002.674-.031.891-.101.215-.069.387-.167.514-.294.182-.179.322-.42.424-.722.104-.302.154-.671.158-1.103.002-.6-.094-1.06-.289-1.383-.193-.323-.432-.54-.713-.65-.201-.079-.529-.12-.979-.123l-1.203-.007-.026 4.376zm5.032.704l.033-5.726 4.141.023-.004.675-3.383-.019-.01 1.754 3.168.018-.004.672-3.168-.018-.012 1.95 3.516.02-.004.676-4.273-.025zm1.597-6.069l.525-1.091.922.005-.865 1.089-.582-.003zm3.692 6.098l.033-5.726 2.146.012c.438.002.789.063 1.053.18s.471.297.617.539c.148.241.223.493.221.757 0 .244-.068.475-.203.69a1.403 1.403 0 0 1-.604.52c.346.104.611.279.795.524.186.245.277.535.275.869a1.706 1.706 0 0 1-.174.748c-.115.229-.256.407-.424.531s-.377.216-.629.28c-.25.063-.559.092-.924.09l-2.182-.014zm.777-3.316l1.238.007c.336.002.576-.018.723-.062a.814.814 0 0 0 .438-.283.827.827 0 0 0 .148-.499.903.903 0 0 0-.135-.503.686.686 0 0 0-.389-.299c-.168-.054-.459-.083-.869-.085l-1.145-.006-.009 1.73zm-.016 2.645l1.426.008a3.42 3.42 0 0 0 .516-.024c.176-.03.32-.082.439-.154a.838.838 0 0 0 .291-.317c.074-.138.113-.3.115-.481a.947.947 0 0 0-.162-.558.85.85 0 0 0-.453-.334c-.193-.066-.473-.099-.836-.101l-1.324-.007-.012 1.968zm4.735.702l.031-5.727.758.004-.031 5.726-.758-.003zm3.55.02l.029-5.051-1.887-.01.002-.676 4.539.025-.004.676-1.895-.01-.027 5.051-.757-.005zm3.071-2.772c.006-.951.264-1.694.777-2.229.514-.534 1.174-.8 1.982-.795a2.75 2.75 0 0 1 1.428.387c.422.254.744.61.965 1.062.219.453.328.967.324 1.539-.002.58-.123 1.099-.359 1.557s-.57.8-1.002 1.035a2.852 2.852 0 0 1-1.393.346 2.715 2.715 0 0 1-1.443-.399 2.502 2.502 0 0 1-.959-1.072 3.233 3.233 0 0 1-.32-1.431zm.781.016c-.004.689.18 1.235.547 1.634.369.398.834.6 1.395.604.57.003 1.041-.195 1.41-.594.371-.398.559-.968.562-1.704.004-.467-.074-.874-.229-1.222a1.817 1.817 0 0 0-.688-.812 1.878 1.878 0 0 0-1.02-.293c-.537-.003-1 .178-1.389.545-.387.366-.584.98-.588 1.842z" fill="#686867"></path></svg>