<svg xmlns="http://www.w3.org/2000/svg" height="32" viewBox="0 0 91.938 40" width="73"><path d="M33.612 19.519c.057-6.057-7.419-11.061-16.699-11.148C7.635 8.282.064 13.149.005 19.204L0 19.847c-.065 6.424 6.467 11.688 16.694 11.783 10.289.098 16.852-5.043 16.912-11.465 0-.225.003-.355.006-.646" fill="#2A3375"></path><path d="M32.97 19.509c-.054 5.707-7.329 10.266-16.253 10.184C7.792 29.609.607 24.912.657 19.205c.051-5.709 7.332-10.268 16.25-10.186 8.924.085 16.115 4.779 16.063 10.49" fill="#40B398"></path><path d="M11.478 16.046c-.007.016-.169.182-.068.316.257.326 1.039.521 1.836.35.477-.102 1.089-.58 1.68-1.039.642-.502 1.283-1.004 1.924-1.201.67-.207 1.104-.113 1.389-.023.313.098.678.307 1.26.752 1.1.842 5.508 4.766 6.268 5.443.623-.275 3.383-1.432 7.126-2.221-.308-1.996-1.499-3.828-3.323-5.338-2.572 1.053-5.708 1.584-8.755.061-.013-.006-1.663-.807-3.298-.783-2.427.035-3.488 1.076-4.611 2.178l-1.428 1.505z" fill="#FFF"></path><path d="M25.581 21.062c-.049-.045-5.183-4.623-6.348-5.514-.672-.518-1.051-.648-1.445-.703-.206-.031-.491.008-.691.059-.546.145-1.264.613-1.9 1.109-.662.516-1.288 1.002-1.859 1.125-.732.158-1.626-.045-2.031-.324-.168-.113-.282-.242-.335-.375-.15-.35.136-.627.181-.674l1.439-1.531c.172-.162.337-.326.512-.49-.464.057-.889.17-1.309.281-.52.141-1.018.273-1.521.27-.208-.002-1.33-.197-1.546-.258-1.284-.363-2.419-.719-4.105-1.527-2.046 1.492-3.42 3.369-3.831 5.447.292.08.759.225.957.271 4.586 1.062 6.004 2.129 6.264 2.352a1.518 1.518 0 0 1 2.382.162 1.748 1.748 0 0 1 1.097-.377c.212.004.436.047.657.123.517.184.781.531.916.844.177-.076.389-.133.64-.129.248.002.506.061.765.176.844.371.97 1.203.886 1.832.055-.008.119-.01.184-.01a1.821 1.821 0 0 1 1.575 2.697c.271.158.967.51 1.578.438.488-.055.676-.221.742-.314.047-.066.097-.141.054-.193l-1.284-1.453s-.212-.203-.142-.281c.074-.078.205.037.298.115a23.973 23.973 0 0 1 1.453 1.396c.014.01.066.115.362.172.256.049.709.025 1.027-.23.08-.062.158-.145.225-.227-.003.004-.006.01-.012.01.334-.42-.029-.852-.029-.852l-1.497-1.715s-.216-.203-.142-.283c.066-.068.202.039.298.119.478.404 1.148 1.09 1.791 1.732.126.094.691.451 1.451-.037.46-.297.557-.664.548-.941-.026-.371-.317-.637-.317-.637l-2.045-2.098s-.214-.188-.139-.281c.065-.08.204.037.298.117.654.555 2.42 2.205 2.42 2.205.026.02.637.463 1.402-.012.275-.174.449-.434.469-.738.026-.53-.343-.848-.343-.848" fill="#FFF"></path><path d="M15.533 23.603c-.323-.006-.677.182-.723.152-.024-.016.021-.146.051-.221.035-.072.469-1.338-.556-1.787-.787-.348-1.271.027-1.439.199-.047.043-.061.041-.067-.016-.011-.23-.107-.85-.786-1.062-.971-.309-1.602.365-1.762.607a1.12 1.12 0 0 0-1.1-.994 1.128 1.128 0 1 0-.024 2.254c.301.004.575-.113.78-.307.005.006.01.016.005.037-.049.279-.145 1.293.909 1.715.425.17.789.049 1.089-.158.089-.064.107-.035.091.047-.036.262.007.818.786 1.146.592.246.946 0 1.179-.211.099-.09.124-.074.134.066.022.754.64 1.359 1.397 1.369a1.423 1.423 0 0 0 1.438-1.404 1.421 1.421 0 0 0-1.402-1.432" fill="#FFF"></path><path d="M25.784 20.522c-1.578-1.406-5.23-4.645-6.223-5.402-.568-.434-.953-.664-1.296-.768a2.074 2.074 0 0 0-.637-.107c-.253 0-.524.043-.812.131-.645.197-1.295.703-1.917 1.188l-.034.027c-.58.455-1.185.924-1.641 1.023a2.791 2.791 0 0 1-.601.059c-.51-.002-.964-.156-1.133-.375-.024-.035-.007-.092.058-.176l.011-.012 1.414-1.496c1.11-1.09 2.156-2.119 4.545-2.15.039 0 .082-.002.119 0 1.487.016 2.965.693 3.131.775 1.391.691 2.825 1.049 4.268 1.062 1.512.018 3.068-.344 4.709-1.08-.18-.156-.369-.309-.562-.455-1.441.611-2.812.91-4.131.898-1.352-.014-2.695-.352-3.995-1.002-.068-.033-1.703-.82-3.409-.84h-.137c-2.007.031-3.145.732-3.906 1.348-.74.012-1.381.186-1.949.338-.506.135-.945.254-1.369.248-.179-.002-.494-.02-.521-.021-.491-.018-2.955-.648-4.911-1.41-.202.141-.4.283-.587.432 2.044.861 4.535 1.535 5.322 1.594.221.016.454.043.686.047.521.004 1.043-.137 1.552-.273.299-.082.625-.168.969-.232l-.275.273-1.437 1.529c-.116.111-.361.412-.205.785.064.15.188.295.369.418.339.232.945.391 1.513.398.211.002.414-.02.6-.059.598-.129 1.229-.621 1.9-1.143.531-.416 1.287-.943 1.866-1.092.16-.043.357-.068.516-.066.051 0 .093.002.136.01.377.049.742.182 1.395.682 1.162.889 6.295 5.465 6.345 5.51.004.004.332.291.304.764-.015.264-.161.496-.419.656a1.268 1.268 0 0 1-.682.207c-.345-.004-.582-.17-.598-.18-.021-.016-1.776-1.658-2.425-2.209-.104-.09-.204-.168-.304-.17a.17.17 0 0 0-.137.064c-.105.127.008.301.143.418l2.051 2.102c.005.004.257.246.284.562.011.346-.156.633-.501.855a1.34 1.34 0 0 1-.738.234c-.318 0-.538-.148-.589-.184l-.293-.295c-.538-.541-1.096-1.098-1.502-1.443-.099-.084-.207-.164-.306-.164a.19.19 0 0 0-.133.055c-.046.053-.08.145.037.301a.882.882 0 0 0 .101.117l1.497 1.713c.012.014.308.373.026.725l-.051.066a1.516 1.516 0 0 1-.146.135c-.259.209-.604.229-.739.229a1.13 1.13 0 0 1-.203-.021c-.152-.027-.251-.07-.298-.129l-.019-.018a23.181 23.181 0 0 0-1.462-1.404c-.084-.07-.186-.158-.291-.158a.171.171 0 0 0-.137.059c-.128.135.058.342.137.418l1.275 1.432a.315.315 0 0 1-.05.088c-.044.062-.204.219-.673.271-.054.008-.116.01-.168.01-.486-.006-.999-.244-1.262-.387a1.922 1.922 0 0 0-1.712-2.757h-.068c.04-.484-.022-1.402-.96-1.812a1.964 1.964 0 0 0-.803-.186c-.208-.004-.4.029-.592.1a1.604 1.604 0 0 0-.934-.809 2.066 2.066 0 0 0-.689-.127 1.843 1.843 0 0 0-1.08.334 1.604 1.604 0 0 0-1.254-.621 1.628 1.628 0 0 0-1.156.463c-.395-.311-1.979-1.338-6.23-2.346a22.138 22.138 0 0 1-.967-.273c-.051.229-.09.463-.117.695 0 0 .787.197.944.234 4.341 1.006 5.769 2.023 6.007 2.217a1.68 1.68 0 0 0-.127.625 1.627 1.627 0 0 0 1.912 1.623c.126.664.556 1.17 1.215 1.432.195.076.391.117.582.119.122 0 .25-.014.37-.043.121.312.392.701 1.004.957.216.088.428.137.639.137.171.002.339-.027.5-.084a1.917 1.917 0 0 0 3.149.639c.31.176.962.496 1.624.502.083.002.167-.006.245-.014.66-.076.968-.332 1.109-.531a.673.673 0 0 0 .069-.107c.156.045.326.084.521.084.36.004.705-.115 1.058-.365.345-.244.592-.596.627-.896.001-.004.004-.008.004-.014.115.025.234.039.352.041.368.004.734-.109 1.085-.334.671-.432.797-1.008.786-1.383.118.025.24.041.358.041.344.004.688-.098 1.016-.303.418-.26.67-.664.713-1.137a1.548 1.548 0 0 0-.213-.93c1.127-.473 3.702-1.385 6.732-2.037a6.774 6.774 0 0 0-.089-.697 38.617 38.617 0 0 0-7.095 2.228m-10.28 5.817a1.308 1.308 0 0 1-1.302-1.27c-.001-.059-.004-.219-.142-.223-.056 0-.107.033-.161.084-.156.143-.357.287-.65.285-.129 0-.274-.033-.42-.096-.748-.312-.758-.826-.722-1.035.007-.053.011-.111-.026-.156l-.045-.043h-.047a.23.23 0 0 0-.132.053c-.221.15-.428.221-.638.221a.96.96 0 0 1-.357-.074c-.982-.393-.895-1.324-.845-1.605.008-.055-.004-.1-.042-.129l-.069-.059-.067.062a1.014 1.014 0 0 1-.708.281c-.567-.008-1.023-.471-1.02-1.037s.474-1.02 1.04-1.016a1.03 1.03 0 0 1 1.002.906l.03.275.153-.232c.02-.027.438-.65 1.201-.643.144.002.295.027.447.076.602.189.699.742.715.971.009.135.105.143.119.143.057 0 .096-.033.125-.062.114-.117.366-.312.756-.311.178.002.367.047.565.135.96.422.508 1.643.504 1.656-.082.201-.09.291-.009.346l.038.02h.025c.046 0 .1-.037.189-.066.133-.045.33-.127.517-.127.727 0 1.309.631 1.304 1.348a1.33 1.33 0 0 1-1.328 1.322" fill="#2A3375"></path><path d="M65.91 20.165s-1.916-.223-1.93 1.316l-.02 2.041a2.289 2.289 0 0 0-.821-.809 2.373 2.373 0 0 0-1.167-.301c-.95-.008-1.713.34-2.287 1.041-.574.703-.871 1.721-.881 2.955-.009 1.07.271 1.951.84 2.639.571.689 1.7.998 2.706 1.008 3.507.033 3.493-2.973 3.493-2.973l.067-6.917zm-2.357 7.756c-.281.396-.689.59-1.226.586-.536-.006-.933-.211-1.193-.611-.258-.404-.382-.988-.376-1.656.007-.619.139-1.137.401-1.551.264-.416.671-.623 1.224-.617.362.002.682.121.952.354.443.385.659 1.07.651 1.955-.006.63-.149 1.143-.433 1.54m17.63-4.182c-.603-.77-1.524-1.162-2.77-1.174-1.238-.012-2.173.363-2.789 1.121-.618.76-.931 1.66-.94 2.701-.01 1.062.286 1.971.889 2.732.605.758 1.528 1.145 2.77 1.156 1.244.012 2.173-.357 2.791-1.104.617-.748.931-1.654.941-2.715.009-1.041-.288-1.947-.892-2.717m-1.552 4.371c-.301.393-.725.584-1.279.58-.555-.006-.978-.205-1.271-.604-.296-.395-.44-.955-.435-1.68.008-.723.16-1.279.463-1.668.304-.389.731-.58 1.282-.574.554.006.979.205 1.27.598.291.395.436.955.429 1.678-.006.723-.162 1.282-.459 1.67m-37.379-4.256c.475.004.82.154 1.042.449.152.219.247.463.281.732l2.041.02c-.103-1.031-.455-1.754-1.061-2.168-.605-.412-1.386-.623-2.342-.633-1.125-.012-2.013.328-2.655 1.012-.647.684-.977 1.646-.987 2.887-.012 1.098.268 1.998.843 2.693.574.693 1.47 1.047 2.697 1.061 1.23.01 2.16-.395 2.793-1.217.396-.508.619-1.049.673-1.625l-2.033-.02c-.047.381-.167.689-.37.926-.199.238-.528.354-.996.35-.659-.008-1.106-.312-1.34-.916-.127-.322-.188-.75-.185-1.277.009-.557.078-1.002.21-1.336.255-.631.719-.943 1.389-.938m8.042-1.441c-4.196-.039-3.983 3.678-3.983 3.678l-.034 3.773 1.901.018.034-3.541c.005-.578.081-1.008.229-1.285.268-.492.779-.734 1.543-.729l.225.01a5.6 5.6 0 0 1 .318.031l.018-1.939a1.834 1.834 0 0 1-.163-.012 1.027 1.027 0 0 0-.088-.004m5.52 5.479c-.08.113-.167.209-.264.285-.269.219-.635.283-1.066.277-.406-.002-.722-.066-1.012-.25-.472-.297-.734-.795-.756-1.52l5.268.049c.014-.625-.001-1.102-.048-1.436a3.604 3.604 0 0 0-.562-1.5 2.954 2.954 0 0 0-1.24-1.084c-.502-.229-1.068-.346-1.699-.354-1.06-.008-1.925.316-2.594.98-.671.66-1.013 1.617-1.025 2.871-.012 1.336.346 2.307 1.077 2.906.729.6 1.578.904 2.537.914 1.167.01 2.079-.332 2.733-1.031.352-.367.575-.73.668-1.09l-2.017-.017zm-2.525-3.569c.271-.273.648-.408 1.133-.404.447.006.82.139 1.12.404.296.26.461.643.49 1.145l-3.256-.031c.074-.471.245-.842.513-1.114m14.124-4.07l1.914.018-.017 1.895-1.914-.018zm1.822 9.784l-1.916-.018.066-7.23 1.916.017zm3.887-6.167l-.204-.002-.039 4.248c-.002.32.183.494.56.498l.595.006-.012 1.465c-.624.053-1.305.045-2.029-.035-.725-.078-1.07-.531-1.045-1.387l.076-8.379 1.002.01c.508.006.92.473.918.98l-.012 1.219 1.159.01-.003.42a.935.935 0 0 1-.966.947m-17.815-2.142l-1.657-.016.438-1.371 1.657.015z" fill="#40B398"></path><path d="M91.05 12.706c-.604-.773-1.525-1.162-2.767-1.176-1.242-.01-2.175.363-2.793 1.121-.618.76-.933 1.66-.94 2.701-.01 1.062.288 1.973.89 2.73.604.76 1.526 1.145 2.77 1.156 1.244.012 2.172-.355 2.79-1.102.619-.75.931-1.654.939-2.715.01-1.041-.285-1.947-.889-2.715m-1.553 4.371c-.299.391-.728.582-1.277.578-.556-.008-.979-.205-1.271-.602-.296-.395-.44-.959-.434-1.682.008-.723.16-1.279.462-1.668.304-.389.729-.582 1.285-.574.552.004.976.205 1.265.598.294.395.435.953.43 1.678s-.161 1.282-.46 1.672m-14.041-5.158c-.615-.32-1.322-.486-2.121-.492-1.224-.012-2.092.301-2.602.934-.321.406-.501.924-.55 1.559l1.833.016c.047-.277.139-.498.274-.662.192-.221.515-.326.968-.322.406.002.711.062.92.18.206.113.312.32.31.617-.007.244-.141.422-.415.535-.153.064-.406.117-.762.16l-.649.072c-.737.088-1.3.238-1.678.451-.698.393-1.052 1.035-1.061 1.928-.005.686.203 1.221.631 1.598.427.379.973.541 1.632.58 4.139.223 4.115-2.145 4.158-2.637l.023-2.723c.011-.876-.294-1.474-.911-1.794m-.997 4.125c-.021.633-.207 1.068-.558 1.305a1.963 1.963 0 0 1-1.148.35 1.033 1.033 0 0 1-.662-.223c-.182-.146-.271-.381-.268-.707.001-.363.155-.629.453-.799.179-.102.469-.186.875-.252l.434-.074c.215-.041.385-.082.51-.127a1.84 1.84 0 0 0 .368-.18l-.004.707zm-8.453-3.063c.472.004.817.152 1.041.445.151.219.245.463.28.734l2.044.02c-.104-1.033-.458-1.756-1.063-2.168-.604-.412-1.383-.621-2.343-.633-1.123-.01-2.01.326-2.655 1.01-.646.686-.976 1.646-.986 2.889-.011 1.1.271 1.996.842 2.691.573.695 1.475 1.049 2.698 1.061 1.229.012 2.161-.391 2.794-1.213.396-.512.62-1.053.673-1.627l-2.035-.02c-.046.379-.167.689-.366.926-.201.236-.532.355-.997.348-.662-.004-1.107-.311-1.339-.914-.13-.324-.191-.748-.186-1.279.005-.555.075-1 .209-1.334.254-.631.715-.943 1.389-.936m-4.194-1.64c-4.193-.039-3.981 3.678-3.981 3.678l-.035 3.773 1.905.02.031-3.541c.006-.578.083-1.008.231-1.285.265-.492.776-.736 1.539-.729.059 0 .135.004.228.01.091.004.196.014.316.029l.018-1.938c-.083-.008-.14-.01-.162-.012-.025-.001-.053-.005-.09-.005m-7.044 5.451a1.318 1.318 0 0 1-.263.285c-.27.219-.639.283-1.066.277-.406-.002-.727-.066-1.012-.25-.473-.299-.736-.795-.758-1.52l5.266.049c.016-.625-.002-1.102-.049-1.436a3.576 3.576 0 0 0-.561-1.5 2.975 2.975 0 0 0-1.24-1.084c-.5-.229-1.068-.346-1.695-.354-1.062-.008-1.924.316-2.596.98-.671.66-1.013 1.619-1.027 2.871-.01 1.338.349 2.307 1.08 2.906.728.6 1.577.906 2.537.914 1.167.012 2.077-.332 2.729-1.031.354-.365.577-.73.672-1.09l-2.017-.017zm-2.525-3.568c.267-.273.648-.408 1.131-.402.447.004.817.137 1.119.4.298.264.463.645.492 1.146l-3.258-.031c.072-.471.245-.84.516-1.113m-3.274 5.486l-1.738-.02.042-4.377c.002-.4-.117-1.354-1.266-1.363-.767-.008-1.324.537-1.333 1.338l-.04 4.379-1.741-.016.042-4.379c.004-.4-.105-1.352-1.253-1.361-.778-.01-1.323.537-1.331 1.338l-.041 4.379-1.738-.018.039-4.336c.017-1.809 1.232-3.164 3.088-3.146.924.01 1.67.402 2.154 1.029a2.781 2.781 0 0 1 2.17-.99c1.9.02 3.006 1.34 2.988 3.205l-.042 4.338zM84.04 9.265s-1.914-.225-1.93 1.316l-.021 2.039a2.262 2.262 0 0 0-.821-.805 2.358 2.358 0 0 0-1.165-.303c-.95-.008-1.712.338-2.287 1.041-.576.703-.869 1.721-.881 2.955-.012 1.068.272 1.949.842 2.639.569.688 1.701.998 2.706 1.01 3.503.031 3.491-2.975 3.491-2.975l.066-6.917zm-2.356 7.754c-.28.396-.691.592-1.225.586-.538-.004-.934-.209-1.192-.611-.26-.404-.385-.988-.379-1.654.005-.619.139-1.139.402-1.555.261-.414.668-.619 1.221-.615.366.006.683.123.957.354.441.385.658 1.072.647 1.955-.005.629-.15 1.145-.431 1.54" fill="#2A3375"></path></svg>