<svg xmlns="http://www.w3.org/2000/svg" xmlns="http://www.w3.org/2000/svg" height="32" viewBox="0 0 32.993 32.487" width="32" xmlns="http://www.w3.org/2000/svg"><path d="M4.034 32.67a.075.075 0 0 1 .048 0c.013.007.002.01-.025.01-.026 0-.037-.003-.024-.01zm24.848 0a.112.112 0 0 1 .059 0c.013.007-.003.01-.035.01s-.043-.004-.024-.01zm-25.061-.02c.014-.004.03-.003.037.003.006.007-.005.01-.026.01-.022 0-.027-.005-.011-.011zm27.785-1.131a.154.154 0 0 1 .045-.04c.005 0-.007.019-.026.04a.153.153 0 0 1-.045.039c-.005 0 .006-.018.026-.04zm.204-.201c0-.004.015-.02.034-.034.03-.025.031-.024.007.007-.025.032-.041.042-.041.027zm-8.853-1.134a268.56 268.56 0 0 1 2.136 0c.591.003.114.005-1.061.005s-1.659-.002-1.075-.005zm5.818.002a.075.075 0 0 1 .049 0c.013.005.002.01-.025.01-.026 0-.037-.005-.024-.01zm-19.858-.021a.845.845 0 0 1 .146 0c.04.004.007.007-.073.007s-.113-.003-.073-.007zm-.958-.37c-.025-.03-.024-.031.007-.007.032.025.042.04.027.04-.005 0-.02-.014-.034-.033zm21.947-.088a.44.44 0 0 1 .064-.063l.063-.057-.057.063c-.054.059-.07.072-.07.057zm-2.363-.28a34.364 34.364 0 0 1 .796 0c.216.003.034.005-.404.005-.438 0-.614-.002-.392-.006zm-16.355-.02a266.391 266.391 0 0 1 2.136 0c.591.003.114.005-1.061.005s-1.659-.002-1.075-.005zm-3.517-.25c.001-.022.006-.027.012-.011.006.014.005.03-.002.037-.006.007-.01-.005-.01-.025zm.758-.077c0-.023.005-.027.011-.012.006.014.005.03-.001.038-.007.006-.011-.005-.01-.026zm-.758-.078c.001-.022.006-.027.012-.011.006.014.005.03-.002.037-.006.006-.01-.005-.01-.026zm-7.67-.338c0-.027.005-.038.01-.024a.075.075 0 0 1 0 .048c-.005.014-.01.003-.01-.024zm32.977-.04c0-.025.004-.036.01-.023a.075.075 0 0 1 0 .049c-.006.013-.01.002-.01-.025zm-2.488-.127c.001-.022.006-.027.012-.011.006.014.005.03-.001.037-.007.006-.011-.005-.01-.026zm-.75-.91c0-.47.003-.66.006-.422a39.318 39.318 0 0 1 0 .855c-.003.23-.005.036-.005-.434zm-9.034-1.15a.16.16 0 0 1 .068 0c.018.005.003.009-.034.009-.038 0-.053-.004-.034-.01zm-9.4-.735c0-.032.004-.042.009-.024a.11.11 0 0 1-.001.059c-.005.013-.01-.003-.009-.035zm9.765-.933c.001-.023.006-.028.012-.012.006.014.005.03-.001.037-.007.007-.011-.005-.01-.025zm.488-.047c0-.027.004-.038.01-.025a.075.075 0 0 1 0 .049c-.006.013-.01.002-.01-.024zm-.485-.564c0-.037.004-.052.01-.033a.16.16 0 0 1 0 .067c-.006.02-.01.004-.01-.034zm-.022-.341c.001-.023.006-.027.012-.012.005.014.005.03-.002.038-.006.006-.01-.006-.01-.026zm-1.784-.134c0-.032.004-.043.01-.024a.11.11 0 0 1-.002.058c-.005.013-.009-.002-.008-.034zm-2.022-.1c0-.022.005-.026.011-.011.006.014.005.03-.001.037-.007.007-.011-.005-.01-.025zm2.02-.337c0-.027.005-.038.01-.025a.075.075 0 0 1 0 .049c-.005.013-.01.002-.01-.024zm.876-.301c0-.032.004-.043.01-.024a.111.111 0 0 1-.002.058c-.005.013-.009-.002-.008-.034zm3.009-.127c0-.026.004-.037.01-.024a.075.075 0 0 1 0 .049c-.006.013-.01.002-.01-.025zm-.52-.36c0-.084.003-.117.007-.071a.965.965 0 0 1 0 .155c-.004.04-.008.003-.008-.083zm-2.49-.01c0-.025.004-.036.01-.023a.075.075 0 0 1 0 .049c-.006.013-.01.002-.01-.025zm-11.38-.67c0-.031.005-.041.01-.022a.111.111 0 0 1-.001.058c-.005.013-.01-.003-.01-.035zm11.883-.758c.001-.022.006-.027.012-.011.006.014.005.03-.002.037-.006.006-.01-.005-.01-.026zm-.608-.254a.075.075 0 0 1 .048 0c.014.006.003.01-.024.01s-.038-.004-.024-.01zm1.068-.02c.045-.004.12-.004.165 0 .045.004.008.007-.083.007-.09 0-.127-.003-.082-.007zm1.174-.268c0-.032.005-.043.01-.024a.11.11 0 0 1-.001.059c-.006.013-.01-.003-.01-.035zm2.758-.33c0-.032.004-.043.01-.024a.111.111 0 0 1-.002.058c-.005.014-.009-.002-.008-.034zm-2.758-.058c0-.032.005-.043.01-.024a.11.11 0 0 1-.001.058c-.006.013-.01-.002-.01-.034zm.794-.196c0-.023.005-.027.012-.012.005.014.004.03-.002.038-.007.006-.011-.006-.01-.026zm-3.007-.28c0-.048.004-.068.009-.044a.277.277 0 0 1 0 .088c-.005.024-.009.004-.009-.044zm4.97-.116c0-.027.004-.038.01-.025a.075.075 0 0 1 0 .049c-.006.013-.01.002-.01-.024zm-4.97-.107c0-.054.004-.073.009-.044a.35.35 0 0 1 0 .097c-.005.024-.009 0-.008-.053zm3.008-.01c0-.027.005-.038.01-.024a.075.075 0 0 1 0 .048c-.005.014-.01.003-.01-.024zm4.058-.244c0-.023.005-.028.011-.012.006.014.005.03-.001.037-.007.007-.011-.005-.01-.025zm3.387-2.135c0-1.186.002-1.668.005-1.072.003.597.003 1.567 0 2.156-.003.59-.005.102-.005-1.084zm-10.016 1.84a.277.277 0 0 1 .087 0c.024.006.005.01-.043.01-.049 0-.068-.004-.044-.01zm6.647-.062c0-.02.007-.042.016-.048.01-.006.013.01.008.038-.011.057-.024.063-.024.01zm-.523-.187c0-.023.005-.027.011-.012.006.014.005.03-.001.037-.007.007-.011-.005-.01-.025zm-3.23-.293c.015-.006.031-.005.038 0 .006.008-.005.012-.026.01-.022 0-.027-.004-.011-.01zm-4.616-.154c0-.023.005-.027.012-.012.005.014.004.03-.002.038-.006.006-.011-.005-.01-.026zm-10.678-.02a.16.16 0 0 1 .068 0c.018.004.003.009-.034.009-.038 0-.053-.005-.034-.01zm.252 0a.16.16 0 0 1 .068 0c.019.004.004.009-.034.009-.037 0-.052-.005-.034-.01zm18.294-.142c0-.038.004-.053.01-.034a.16.16 0 0 1 0 .068c-.006.018-.01.003-.01-.034zm-.022-.284c0-.022.005-.027.011-.011.006.014.005.03-.001.037-.007.006-.011-.005-.01-.026zm2.118-.221c0-.027.005-.038.01-.025a.075.075 0 0 1 0 .049c-.005.013-.01.002-.01-.024zm.023-.457c0-.074.004-.103.008-.062a.725.725 0 0 1 0 .136c-.005.034-.008 0-.008-.074zm-4.12.01c0-.027.004-.038.01-.024a.075.075 0 0 1 0 .048c-.006.014-.01.003-.01-.024zm3.59-.09c.002-.022.006-.026.012-.011.006.014.005.03-.001.038-.007.006-.011-.005-.01-.026zm-3.132-.196a.975.975 0 0 1 .155 0c.04.004.003.008-.083.008-.085 0-.118-.004-.072-.008zm3.156-.17c0-.054.004-.073.009-.044a.35.35 0 0 1 0 .097c-.005.024-.009 0-.009-.053zm.505-.078c0-.053.004-.073.009-.043a.35.35 0 0 1 0 .097c-.005.024-.01 0-.009-.054zm-4.525-1.31c0-.05.004-.07.008-.045a.277.277 0 0 1 0 .088c-.004.024-.008.004-.008-.044zm1.03-.05c0-.053.003-.072.008-.043a.35.35 0 0 1 0 .097c-.005.024-.009 0-.009-.053zm-14.567-.702a.16.16 0 0 1 .068 0c.019.005.003.009-.034.009-.037 0-.053-.004-.034-.01zM29.76 11.69c0-1.19.003-1.678.006-1.082.002.595.002 1.57 0 2.165-.003.596-.006.108-.006-1.083zm-15.986 1.825c0-.09.004-.128.008-.083.004.046.004.12 0 .165-.004.046-.008.009-.008-.082zm8.52-.11c.002-.021.007-.026.013-.01.005.014.005.03-.002.037-.006.006-.01-.005-.01-.026zm.054-.37c.014-.005.03-.004.037.002.007.007-.005.01-.025.01-.023 0-.027-.005-.012-.011zm.583 0c.014-.005.03-.004.037.002.006.007-.005.01-.026.01-.022 0-.027-.005-.011-.011zm3.3 0a.075.075 0 0 1 .049 0c.013.006.002.01-.025.01-.026 0-.037-.004-.024-.01zm.282 0a.112.112 0 0 1 .058 0c.013.006-.002.01-.034.01s-.043-.005-.024-.01zm-19.455-1.56a85.378 85.378 0 0 1 1.078-1.068c.005 0-.471.48-1.059 1.068A85.078 85.078 0 0 1 6 12.544c-.006 0 .47-.48 1.058-1.068zm15.522.82a.619.619 0 0 1 .126 0c.035.005.006.009-.063.009-.07 0-.098-.004-.063-.008zm4.474-3.117c.005-.002.35-.341.765-.752l.757-.748-.747.753c-.412.413-.756.752-.766.752-.01 0-.014-.002-.009-.005zm.019-.162c0-.022.005-.027.011-.011.006.014.005.03-.001.037-.007.006-.011-.005-.01-.026zm-9.571-.08a.11.11 0 0 1 .058 0c.013.007-.002.01-.034.01s-.043-.005-.024-.01zm1.336-.133c.001-.023.006-.027.012-.012.006.014.005.03-.002.037-.006.007-.01-.005-.01-.025zm8.26-.212c0-.107.003-.148.007-.092.004.057.004.144 0 .194-.004.05-.007.005-.007-.102zm-2.84.116c.001-.032.006-.043.01-.024a.11.11 0 0 1 0 .059c-.006.013-.01-.003-.01-.035zm-6.175-.02c0-.031.005-.042.01-.023a.11.11 0 0 1-.001.058c-.005.013-.01-.002-.009-.034zm8.256-.087c0-.07.004-.097.008-.063a.619.619 0 0 1 0 .127c-.004.034-.008.006-.008-.064zm3.415-.058c0-.026.005-.037.01-.024a.075.075 0 0 1 0 .048c-.005.014-.01.003-.01-.024zm-8.838-.07c.001-.022.006-.027.012-.011.006.014.005.03-.002.037-.006.007-.01-.005-.01-.025zm-2.833-.211c0-.032.005-.043.01-.024a.11.11 0 0 1-.001.058c-.005.013-.01-.002-.009-.034zm8.99-.1c0-.022.005-.026.011-.01.006.013.005.03-.001.036-.007.007-.011-.005-.01-.025zm2.333-.08a.16.16 0 0 1 .068 0c.019.006.004.01-.034.01-.037 0-.052-.004-.034-.01zm-3.686-2.73l-.076-.081.082.077a1 1 0 0 1 .083.082c0 .015-.017 0-.089-.077zm-3.469-.57c.014-.006.03-.005.037 0 .007.008-.005.012-.025.01-.023 0-.027-.004-.012-.01zm-2.978-1.235l-.912-.917.917.912c.853.849.927.923.913.923-.003 0-.415-.413-.917-.918zm2.94.477c.013-.005.03-.005.036.002.007.006-.005.01-.025.01-.023 0-.027-.006-.012-.012zm.62 0a.075.075 0 0 1 .048 0c.013.006.002.01-.024.01-.027 0-.038-.004-.025-.01zm-7.59-.715c.358-.358.656-.65.66-.65.006 0-.282.292-.64.65-.357.358-.655.65-.66.65-.005 0 .283-.292.64-.65zm17.736.466c0-.032.004-.042.01-.024a.11.11 0 0 1-.001.059c-.006.013-.01-.003-.01-.035zM0 3.697c.001-.023.006-.027.012-.012.005.014.005.03-.002.038-.006.006-.01-.005-.01-.026zm17.045-.76a.075.075 0 0 1 .049 0c.013.007.002.01-.025.01-.026 0-.037-.003-.024-.01zm.155 0a.075.075 0 0 1 .049 0c.013.007.002.01-.024.01-.027 0-.038-.003-.025-.01zM1.047 1.177a.14.14 0 0 1 .034-.034c.031-.024.032-.023.007.008-.025.032-.04.042-.04.026zm30.818-.065c-.024-.03-.023-.032.008-.007.018.014.034.03.034.034 0 .016-.016.005-.042-.027zM3.801-.286c.014-.006.031-.005.038.002.006.006-.006.01-.026.01-.023-.001-.027-.006-.012-.012zm.193-.02a.075.075 0 0 1 .049 0c.013.006.002.01-.024.01-.027 0-.038-.004-.025-.01zm24.977 0c.014-.005.03-.004.037.002.006.007-.005.01-.026.01-.022 0-.027-.005-.011-.011z" fill="#d0d0d0"></path><path d="M4.121 32.67a.16.16 0 0 1 .067 0c.02.006.004.01-.033.01-.038 0-.053-.004-.034-.01zm20.412 0a492.754 492.754 0 0 1 2.894 0c.792.003.138.005-1.453.005-1.592 0-2.24-.002-1.44-.005zm4.554-.018c.014-.006.03-.005.037 0 .007.008-.005.012-.025.01-.023 0-.027-.004-.012-.01zm-27.73-1.148l-.048-.053.054.047c.05.044.062.06.047.06a.337.337 0 0 1-.054-.054zm30.365-.102a.542.542 0 0 1 .086-.077.337.337 0 0 1-.066.077.54.54 0 0 1-.086.078.338.338 0 0 1 .066-.078zM1.152 31.3l-.037-.043.044.037c.041.035.052.05.037.05a.214.214 0 0 1-.044-.044zm6.865-1.446c-.024-.031-.024-.032.007-.008.019.015.034.03.034.034 0 .016-.016.006-.041-.026zm-.117-.117c-.024-.03-.023-.031.008-.007.018.014.034.03.034.034 0 .016-.016.005-.042-.027zm21.948.027c0-.004.016-.02.034-.034.031-.024.032-.024.007.007-.025.032-.04.043-.04.027zm.175-.175c0-.004.015-.02.034-.034.03-.024.031-.023.007.007-.025.033-.041.043-.041.027zm-14.582-.182a266.391 266.391 0 0 1 2.137 0c.59.003.113.005-1.062.005s-1.659-.002-1.075-.005zm3.023-.445c.014-.006.03-.005.037 0 .007.008-.005.012-.025.01-.023 0-.028-.004-.012-.01zM.002 28.576c0-.032.005-.043.01-.024a.111.111 0 0 1 0 .058c-.006.013-.01-.002-.01-.034zm32.978-.06c0-.041.004-.056.009-.032a.215.215 0 0 1 0 .077c-.006.019-.01 0-.01-.044zM8.252 27.98c.112-.115.206-.21.209-.21.014 0-.01.026-.204.215l-.209.203zm-2.379-2.816L3.29 22.576l2.588 2.583a939.121 939.121 0 0 1 2.588 2.587.005.005 0 0 1-.005.005c-.003 0-1.167-1.164-2.588-2.587zm3.914 1.296c.421-.422.77-.767.776-.767.006 0-.335.345-.757.767a41.03 41.03 0 0 1-.777.767c-.005 0 .336-.345.758-.767zm19.954-1.865c0-1.185.003-1.667.005-1.071.003.596.003 1.566 0 2.156-.003.589-.005.1-.005-1.085zm-8.574 1.673c0-.004.016-.02.034-.034.031-.024.032-.023.007.007-.025.033-.04.043-.04.027zm-9.864-.645c0-.023.006-.027.012-.012.005.014.005.03-.002.038-.006.006-.01-.005-.01-.026zm9.769-.913c0-.022.005-.027.011-.011.006.014.005.03-.001.037-.007.006-.011-.005-.01-.026zm.764-.051l-.057-.064.063.058c.035.03.063.06.063.063 0 .015-.016 0-.069-.057zm-.277-.015c0-.027.004-.038.01-.024a.075.075 0 0 1 0 .048c-.006.014-.01.003-.01-.024zm-.483-.33c0-.06.004-.083.008-.054a.429.429 0 0 1 0 .107c-.004.03-.008.006-.008-.053zm-11.639-.32a7.82 7.82 0 0 1 .29-.282 4.6 4.6 0 0 1-.27.28 6.178 6.178 0 0 1-.291.283c-.006 0 .116-.127.271-.282zm3.71-.894c.443-.443.81-.806.815-.806.005 0-.353.363-.796.806-.443.443-.81.806-.816.806-.005 0 .353-.363.796-.806zm7.905.775c.001-.022.006-.027.012-.011.006.014.005.03-.002.037-.006.006-.01-.005-.01-.026zm-1.786-.116c0-.023.005-.028.011-.012.006.014.005.03-.001.037-.007.007-.011-.005-.01-.025zm-2.019-.241c0-.027.005-.038.01-.025a.075.075 0 0 1 0 .049c-.005.013-.01.002-.01-.024zm-.001-.284c0-.022.005-.027.011-.011.006.014.005.03-.001.037-.007.006-.011-.005-.01-.026zm5.884-.038c.001-.023.006-.028.012-.012.006.014.005.03-.002.037-.006.007-.01-.005-.01-.025zm-3.865-.02c.001-.023.006-.027.012-.012.006.014.005.03-.001.038-.007.006-.011-.005-.01-.026zm3.888-.26c0-.038.004-.053.009-.034a.16.16 0 0 1 0 .068c-.005.018-.01.003-.01-.034zm-3.008-.224c0-.117.003-.163.007-.101a1.98 1.98 0 0 1 0 .214c-.004.055-.007.005-.007-.113zM5.038 20.954c.63-.63 1.15-1.146 1.156-1.146.005 0-.506.516-1.136 1.146A97.79 97.79 0 0 1 3.902 22.1a96.3 96.3 0 0 1 1.136-1.146zm3.494.306l-.037-.044.044.037c.04.035.052.05.037.05a.214.214 0 0 1-.044-.043zm6.285-.53c.272-.272.499-.494.504-.494.006 0-.213.222-.485.495-.272.272-.5.495-.505.495-.005 0 .213-.223.486-.495zm5.827.349c.001-.023.006-.028.012-.012.006.014.005.03-.001.037-.007.007-.011-.005-.01-.025zm-2.934-.326c0-.004.016-.02.034-.034.031-.025.032-.024.008.007-.026.032-.042.043-.042.027zm3.279-.006c.014-.006.03-.005.037 0 .006.008-.005.012-.026.01-.022 0-.027-.004-.011-.01zm4.848-.09l-.077-.082.083.077c.076.072.091.088.077.088a.827.827 0 0 1-.083-.082zm-9.51-.046c.015-.006.032-.005.038 0 .006.008-.005.012-.026.01-.022 0-.027-.004-.011-.01zm.098 0c.014-.006.03-.005.037 0 .007.008-.005.012-.025.01-.023 0-.028-.004-.012-.01zm9.055-.037c.001-.023.006-.028.012-.012.005.014.005.03-.002.037-.006.007-.01-.005-.01-.025zm-3.204-.02c0-.022.005-.027.011-.011.006.014.005.03-.001.037-.007.006-.011-.005-.01-.026zm3.224-.174c0-.023.005-.028.011-.012.006.014.005.03-.001.037-.007.007-.011-.005-.01-.025zm-.486-.02c.001-.023.006-.027.012-.012.005.014.005.03-.002.038-.006.006-.01-.005-.01-.026zm-6.876-.035c0-.004.015-.02.034-.034.03-.024.031-.023.007.008-.026.032-.041.042-.041.026zm6.898-.284c0-.037.004-.052.01-.034a.16.16 0 0 1 0 .068c-.006.019-.01.004-.01-.034zm-20.668-.52L3.854 19l.52.516c.285.283.519.517.519.52 0 .013-.047-.032-.525-.515zm17.908.49c0-.023.005-.028.011-.012.006.014.005.03-.001.037-.007.007-.011-.005-.01-.025zm-5.07-.975c.453-.456.829-.827.834-.824.01.006-1.634 1.655-1.65 1.655-.006 0 .361-.374.815-.83zm5.87.763c0-.043.004-.058.008-.034a.213.213 0 0 1 0 .077c-.005.02-.009 0-.009-.043zm1.96-.195c.001-.042.005-.058.01-.033a.213.213 0 0 1 0 .077c-.006.019-.01 0-.01-.044zm-1.96-.116c0-.043.004-.058.008-.034a.213.213 0 0 1 0 .078c-.005.018-.009-.001-.009-.044zm-3.014.018c0-.023.005-.028.011-.012.006.014.005.03-.001.037-.007.007-.011-.005-.01-.025zM4.854 18.92l-.573-.578.578.573c.317.315.577.575.577.577 0 .014-.05-.035-.582-.572zm20.16.39c.001-.021.006-.026.012-.01.005.014.005.03-.002.037-.006.006-.01-.005-.01-.026zm-4.096-.114c0-.032.005-.042.01-.023a.11.11 0 0 1 0 .058c-.006.013-.01-.002-.01-.035zm2.173-.02c.001-.023.006-.028.012-.012.006.014.005.03-.001.037-.007.006-.011-.005-.01-.026zm4.062-.3c0-.037.004-.053.01-.034a.16.16 0 0 1 0 .068c-.006.019-.01.003-.01-.034zm-.503-.612c0-.074.004-.103.008-.062a.725.725 0 0 1 0 .136c-.004.034-.008 0-.008-.074zm-18.615-.14c.014-.005.03-.004.037.002.007.007-.005.01-.025.01-.023 0-.027-.005-.012-.011zm.427 0c.014-.005.031-.004.038.002.006.007-.005.01-.026.01-.023 0-.027-.005-.012-.011zm18.183-.056c.001-.022.006-.027.012-.011.006.014.005.03-.001.037-.007.006-.011-.005-.01-.026zm1.24-.313c-.025-.031-.024-.032.007-.008a.14.14 0 0 1 .034.034c0 .016-.016.006-.042-.026zm.879-.57c0-.025.004-.036.01-.023a.075.075 0 0 1 0 .049c-.006.013-.01.002-.01-.025zm-25.54-.243c0-.023.006-.027.012-.012.005.014.005.03-.002.038-.006.006-.01-.005-.01-.026zm25.014-.058c0-.023.005-.027.012-.012.005.014.005.03-.002.037-.006.007-.011-.005-.01-.025zm-25.014-.156c0-.022.006-.027.012-.011.005.014.005.03-.002.037-.006.006-.01-.005-.01-.026zm21.765.018c.014-.006.031-.005.038 0 .006.008-.005.012-.026.01-.023 0-.027-.004-.012-.01zm.35 0c.014-.006.03-.005.037 0 .007.008-.005.012-.025.01-.023 0-.027-.004-.012-.01zm3.425-.385c0-.032.005-.043.01-.024a.11.11 0 0 1 0 .058c-.006.014-.01-.002-.01-.034zm-8.529-.155c.069-.07.13-.127.135-.127a.995.995 0 0 1-.116.127 1.33 1.33 0 0 1-.134.126.997.997 0 0 1 .115-.126zm-16.74-.093c0-.002.237-.24.528-.53l.53-.523-.524.53c-.488.49-.535.537-.535.523zm-.117-.975c.24-.24.44-.437.446-.437.005 0-.187.196-.427.437-.24.24-.44.437-.446.437-.006 0 .187-.197.427-.437zm14.06-1.287l-.592-.597.597.592c.555.55.606.602.592.602-.002 0-.271-.27-.597-.597zm-4.407.08c.001-.022.006-.026.012-.01.006.013.005.03-.001.036-.007.007-.011-.005-.01-.025zm-.014-.415c0-.102.004-.143.008-.092.004.05.004.133 0 .184-.004.05-.008.01-.008-.092zm12.854-.204c0-.032.005-.043.01-.024a.11.11 0 0 1-.001.058c-.006.014-.01-.002-.01-.034zm-7.86-1.233c.641-.641 1.17-1.165 1.175-1.165.006 0-.514.524-1.155 1.165a113.7 113.7 0 0 1-1.175 1.165c-.005 0 .515-.524 1.155-1.165zm-4.98 1.018c.001-.023.006-.028.012-.012.006.014.005.03-.001.037-.007.007-.011-.005-.01-.025zm9.243-.048c0-.01.013-.02.03-.02.015 0 .028.005.028.009 0 .004-.013.013-.029.019s-.029.003-.029-.008zm.715-.012c.014-.006.03-.005.037 0 .007.008-.005.012-.025.01-.023 0-.027-.004-.012-.01zm3.612 0c.014-.006.031-.005.038 0 .006.008-.005.012-.026.01-.023 0-.027-.004-.012-.01zm6.384-5.056c0-2.291.002-3.228.005-2.083.002 1.146.002 3.02 0 4.166-.003 1.145-.005.208-.005-2.083zm-7.75 3.224c.064-.064.12-.117.126-.117a.828.828 0 0 1-.106.117c-.063.064-.12.116-.125.116a.84.84 0 0 1 .106-.116zm-10.496-.143c0-.004.015-.02.034-.034.03-.025.031-.024.007.007-.025.032-.041.043-.041.027zm.272-.272c0-.004.015-.02.034-.034.03-.025.031-.024.007.007-.025.032-.041.043-.041.027zm-.66-.41a.974.974 0 0 1 .115-.107.692.692 0 0 1-.096.106.977.977 0 0 1-.115.107.688.688 0 0 1 .095-.107zm-4.07-2.127a343.325 343.325 0 0 1 2.166-2.156c.006 0-.96.97-2.146 2.156a342.142 342.142 0 0 1-2.165 2.156c-.005 0 .96-.97 2.146-2.156zm19.479.806c0-.267.002-.38.006-.25.003.13.003.35 0 .487-.004.136-.006.03-.006-.237zm-12.325-.12c.014-.006.03-.005.037 0 .006.008-.005.012-.026.01-.022 0-.027-.004-.011-.01zm.646-.173c0-.023.005-.027.012-.012.005.014.004.03-.002.037-.006.007-.011-.005-.01-.025zM12.03 7.593a85.378 85.378 0 0 1 1.077-1.07c.006 0-.47.482-1.058 1.07a85.078 85.078 0 0 1-1.078 1.068c-.005 0 .471-.48 1.059-1.068zm6.05.59c.002-.022.006-.027.013-.011.005.014.004.03-.002.037-.006.006-.011-.005-.01-.026zm12.078-.566l-.067-.073.073.067c.068.062.082.079.067.079a.663.663 0 0 1-.073-.073zm-8.816-.306a.23.23 0 0 1 .055-.05c.006 0-.01.023-.036.05a.23.23 0 0 1-.055.049c-.005 0 .01-.022.036-.05zm-1.554-1.3c0-.003.016-.02.034-.033.031-.024.032-.023.008.008-.026.032-.042.042-.042.026zm6.068-.521l-.057-.063.063.057c.059.053.072.07.057.07a.488.488 0 0 1-.063-.064zm-6.466-.15a.816.816 0 0 1 .106-.097.56.56 0 0 1-.086.097.816.816 0 0 1-.106.097.56.56 0 0 1 .086-.097zm6.194-.122l-.057-.063.063.057c.06.054.072.07.057.07a.488.488 0 0 1-.063-.064zm-.166-.145c-.024-.031-.024-.032.007-.008.033.026.043.042.027.042-.004 0-.02-.016-.034-.034zm-5.165-.544l-.067-.073.073.067c.068.062.082.079.067.079a.663.663 0 0 1-.073-.073zM.002 3.767c0-.027.004-.038.01-.025a.075.075 0 0 1 0 .049c-.006.013-.01.002-.01-.024zm32.955-.186c.001-.023.006-.028.012-.012.005.014.005.03-.002.037-.006.007-.01-.005-.01-.025zm-15.834-.643a.075.075 0 0 1 .048 0c.014.006.003.01-.024.01s-.038-.004-.024-.01zm-1.19-.317a.154.154 0 0 1 .045-.04c.005 0-.006.019-.025.04a.153.153 0 0 1-.045.039c-.006 0 .006-.018.025-.04zm2.396-.015c-.024-.03-.023-.031.008-.007.018.015.033.03.033.034 0 .016-.015.006-.04-.027zm13.47-1.563l-.038-.044.044.037c.04.035.052.05.037.05a.214.214 0 0 1-.044-.043zm-.185-.185l-.047-.053.053.047a.3.3 0 0 1 .054.054c0 .015-.016.002-.06-.048zM1.377.846c0-.004.016-.02.034-.034.031-.024.032-.023.008.008-.026.032-.042.042-.042.026zM4.082-.306a.11.11 0 0 1 .058 0c.013.006-.002.01-.034.01s-.043-.005-.024-.01zm24.81 0a.075.075 0 0 1 .048 0c.014.006.003.01-.024.01s-.038-.004-.024-.01z" fill="#b9b9b9"></path><path d="M1.644 1.314h29.705v29.744H1.643z" fill="#fff"></path><path d="M4.013 32.666a4.313 4.313 0 0 1-3.995-4.012c-.015-.21-.02-3.773-.015-12.681C.01 4.483.014 3.569.044 3.398c.055-.313.092-.467.172-.713A4.22 4.22 0 0 1 1.292.94 4.353 4.353 0 0 1 3.806-.277c.15-.02 2.563-.025 12.71-.025 12.018 0 12.536.002 12.75.035.49.078.889.202 1.297.402a4.308 4.308 0 0 1 2.286 2.807c.138.548.127-.621.132 13.254l.005 12.517-.044.273a4.272 4.272 0 0 1-1.272 2.468 4.224 4.224 0 0 1-2.442 1.184c-.178.025-1.815.03-12.604.036-6.82.004-12.495 0-12.61-.01zm24.967-2.497c.374-.065.71-.238.977-.504a1.76 1.76 0 0 0 .53-1.04c.014-.101.022-3.217.026-10.225l.005-10.08-.045-.154c-.236-.815-1.03-1.09-1.751-.607-.048.033-.44.41-.87.838l-.783.778.015-.126a6.383 6.383 0 0 0-.011-.99 4.56 4.56 0 0 0-.738-1.975 4.616 4.616 0 0 0-3.36-2.047 5.508 5.508 0 0 0-1.177.039 4.45 4.45 0 0 0-1.26.419l-.2.102-.98-.98a34.507 34.507 0 0 0-1.104-1.077 2.094 2.094 0 0 0-.631-.31 2.357 2.357 0 0 0-.94-.001c-.2.054-.402.145-.568.256-.135.09-.7.65-8.468 8.405-3.581 3.575-4.814 4.816-4.88 4.917-.11.165-.191.34-.248.539-.038.13-.044.196-.044.48 0 .36.019.47.127.732.116.282.19.366 1.258 1.45l1.02 1.036-.808.81c-.953.953-.918.906-.918 1.246 0 .378-.261.083 2.712 3.059l2.6 2.603-.176.174c-.247.244-.4.44-.488.62-.222.464-.157.92.178 1.254.167.166.353.263.641.336.064.015 1.89.024 6.681.032 13.907.023 13.496.023 13.678-.01zM18.895 28.85c0-.004.015-.02.034-.034.03-.024.031-.023.007.007-.025.033-.041.043-.041.027z" fill="#fed105"></path><path d="M13.71 29.402c-4.571-.01-4.95-.012-5.024-.042-.123-.05-.175-.09-.209-.16-.043-.092-.038-.18.018-.3.055-.117.338-.41 1.737-1.8.463-.458.88-.885.925-.946a.692.692 0 0 0 .152-.47.72.72 0 0 0-.046-.273c-.04-.106-.088-.16-.537-.612a9.788 9.788 0 0 1-.493-.516c0-.01.05-.067.109-.125.227-.221.526-.61.714-.928l.105-.18.067.16.26.627c.18.436.199.473.303.585a.71.71 0 0 0 .233.175c.109.05.143.057.316.057.18 0 .205-.005.33-.064.127-.06.197-.125 1.024-.952.824-.824.892-.897.95-1.02a.78.78 0 0 0 .057-.493 6.08 6.08 0 0 0-.197-.49l-.174-.398.501-.502.502-.501.415.177c.465.2.593.232.772.196.25-.05.257-.056 1.233-1.03.848-.846.911-.914.97-1.04.06-.126.065-.15.063-.321a2.248 2.248 0 0 0-.01-.22c-.006-.03.028-.05.197-.11.42-.15.689-.283 1.039-.515a5.197 5.197 0 0 0 1.766-2.02c.328-.666.52-1.41.524-2.024l.001-.277h.334c.187 0 .435-.013.563-.03a4.483 4.483 0 0 0 3.175-2.015 2.18 2.18 0 0 1 .165-.231c.02-.018.613-.604 1.318-1.303 1.384-1.372 1.386-1.373 1.586-1.373.075 0 .105.01.16.059.037.032.083.1.102.15.034.088.035.474.031 10.139-.003 9-.007 10.059-.034 10.164a1.09 1.09 0 0 1-.789.782c-.134.03-3.533.034-15.204.01zm5.03-.47c.105-.03.213-.108.213-.152a.469.469 0 0 0-.098-.158 2.583 2.583 0 0 1-.24-.402 19.069 19.069 0 0 1-.644-1.57c-.085-.257-.12-.5-.09-.6.014-.048.185-.284.454-.63.473-.607.74-.966.786-1.053.048-.092.022-.14-.113-.207-.203-.102-.426-.077-.689.077-.133.079-.58.515-.712.695-.055.075-.094.114-.1.098a29.402 29.402 0 0 1-.128-.687c-.105-.584-.119-.691-.12-.932-.004-.338-.01-.325.347-.85.443-.655.908-1.273 1.792-2.384.182-.23.337-.437.344-.46.03-.11-.033-.125-.32-.074a2.07 2.07 0 0 0-.954.4c-.22.162-.832.778-1.098 1.104a17.834 17.834 0 0 0-1.687 2.513 89.613 89.613 0 0 1-.351.615c-.326.564-.529.984-.57 1.18-.046.212.055.32.298.32.153-.002.288-.067.422-.204.131-.135.562-.713.85-1.143.195-.29.242-.348.254-.317.008.02.029.156.046.3.041.338.174 1.215.224 1.477l.039.203-.07.107c-.122.19-.246.462-.256.56-.016.167.105.259.4.304.093.014.184.032.202.04.02.007.046.056.065.122.197.717.633 1.465.972 1.666.136.08.343.097.531.042zm2.261-2.547c.226-.103.417-.376.52-.742.04-.142.043-.195.043-.67 0-.32-.01-.546-.023-.6l-.022-.087.052.067c.236.305.442.488.6.536.206.062.36.024.512-.128.093-.092.12-.137.19-.315.092-.237.183-.593.225-.89.028-.2.069-.62.07-.721v-.052l.153.093c.085.05.228.116.319.146a.79.79 0 0 0 .366.046c.181-.007.214-.014.346-.077.194-.092.357-.231.513-.44.335-.443.518-.986.604-1.781.017-.16.037-.333.045-.383l.013-.092.126.157c.318.397.56.524.84.44.114-.034.257-.172.325-.315.173-.362.301-.974.342-1.63l.013-.212.05.066c.128.168.365.389.476.445a.496.496 0 0 0 .583-.075c.19-.184.367-.743.45-1.421.037-.307.062-1.373.034-1.476l-.017-.068-.155-.006c-.325-.013-.338 0-.338.313 0 .402-.057.893-.128 1.115a.416.416 0 0 1-.08.145c-.044.04-.05.042-.1.015-.325-.182-.87-2.254-1.15-4.38-.026-.2-.05-.32-.069-.34-.021-.021-.087-.03-.266-.035-.278-.007-.449.019-.513.079-.089.083-.09.145-.015.719.158 1.215.324 2.144.534 2.987.03.122.08.363.11.534.05.284.054.352.054.796 0 .38-.007.53-.035.699-.044.264-.116.497-.168.544-.087.078-.196-.05-.348-.404-.224-.522-.403-1.2-.517-1.951a1.168 1.168 0 0 0-.057-.25c-.017-.024-.07-.033-.235-.04-.293-.014-.482.015-.554.083-.102.098-.096.193.08 1.154.232 1.275.267 1.594.233 2.155a4.94 4.94 0 0 1-.118.898c-.075.295-.266.64-.438.792-.095.083-.252.155-.338.155-.251-.001-.558-.365-.786-.932a4.161 4.161 0 0 1-.224-.786c-.06-.384-.056-1.088.008-1.24.032-.077.103-.15.148-.15s.128.094.172.195c.03.067.236.892.236.943 0 .054.27-.088.366-.194.138-.15.185-.276.193-.516.013-.356-.069-.614-.25-.795-.258-.26-.659-.284-1-.063-.433.28-.693.896-.721 1.703-.017.489.04.893.196 1.383.117.373.137.5.137.9 0 .228-.009.408-.026.494-.041.21-.114.427-.157.466-.036.033-.04.033-.102-.003-.05-.028-.089-.086-.173-.253-.24-.477-.45-1.205-.573-1.996-.028-.182-.063-.343-.077-.358-.035-.037-.416-.053-.598-.024-.24.037-.293.14-.237.46.046.258.051.246-.09.187a.61.61 0 0 0-.287-.051c-.207 0-.275.033-.448.217-.427.456-.66 1.422-.56 2.332.092.858.475 1.803.92 2.273.254.268.517.338.796.21zm-.223-1.276c-.182-.197-.446-.955-.564-1.62-.06-.338-.076-1.06-.028-1.258.036-.15.104-.302.152-.342.12-.1.374-.034.452.117.066.127.255 1.596.28 2.18.037.843-.066 1.168-.292.923zm-.583-4.358c.147-.052.179-.09.344-.411.27-.523.38-.85.382-1.136.001-.238-.088-.341-.312-.361-.114-.01-.43.035-.514.073l-.046.02v.5c.001.443-.003.523-.043.715-.024.12-.057.254-.072.299-.092.26.018.386.261.3zm4.735-4.86c.297-.201.435-.708.295-1.082-.052-.14-.188-.29-.3-.333-.183-.07-.398.008-.529.19-.228.317-.202.838.056 1.132.134.153.332.19.478.092zm-10.648 4.305c1.136-1.136.789-.77.02 0-1.136 1.135-.789.77-.02 0zm-9.857-1.724c-1.07-1.074-1.075-1.08-1.156-1.355a1.13 1.13 0 0 1 .178-.931c.105-.138 13.018-13 13.117-13.066.186-.123.307-.156.573-.158.284-.002.423.04.625.183.077.054.515.477 1.034.997l.901.903-.252.25a4.36 4.36 0 0 0-.819 1.062c-.23.413-.404.91-.488 1.39a5.68 5.68 0 0 0-.045 1.13l.017.148-.088-.04c-.256-.114-1.126-.025-1.744.18-.615.203-1.109.49-1.66.967a4.676 4.676 0 0 0-1.161 1.505 4.052 4.052 0 0 0-.434 1.879c0 .655.131 1.257.396 1.822.061.13.07.16.043.154-.019-.006-.576-.235-1.238-.51a40.111 40.111 0 0 0-1.311-.53.783.783 0 0 0-.458.036c-.108.04-.162.09-.936.86-.965.962-.946.936-.946 1.265v.195l.299.714c.164.393.294.719.29.724a.293.293 0 0 1-.105-.02 3.19 3.19 0 0 0-1.115-.09c-.814.093-1.538.455-2.286 1.142-.12.11-.22.2-.224.2-.004 0-.457-.452-1.007-1.005z" fill="#ec008c"></path><path d="M6.456 24.659l-2.564-2.57 2.569 2.565a967.122 967.122 0 0 1 2.568 2.568.005.005 0 0 1-.005.005c-.002 0-1.158-1.156-2.568-2.568zm3.389-1.09c0-.004.015-.02.034-.034.03-.025.031-.024.007.007-.025.032-.041.043-.041.027zm-2.777-1.964c.165-.166.305-.301.31-.301.005 0-.126.135-.291.3a6.95 6.95 0 0 1-.31.302c-.006 0 .125-.136.29-.301zm-.816-1.843c0-.004.015-.02.034-.034.03-.024.031-.023.007.007-.025.033-.041.043-.041.027zm6.372-.425c.005-.002.192-.184.416-.403l.407-.398-.398.403a6.847 6.847 0 0 1-.415.403c-.01 0-.015-.002-.01-.005zm-4.425-.456a.845.845 0 0 1 .146 0c.04.005.007.008-.073.008s-.113-.003-.073-.008zm9.157-1.533a.075.075 0 0 1 .048 0c.014.006.003.01-.024.01s-.038-.004-.024-.01zm.408 0a.075.075 0 0 1 .048 0c.013.006.003.01-.024.01s-.038-.004-.024-.01zm-2.755-1.07l-.047-.053.054.047c.029.026.053.05.053.054 0 .015-.016.003-.06-.047zm-.145-.145l-.057-.063.063.057c.059.053.072.07.057.07a.488.488 0 0 1-.063-.064zm1.583-1.447l-.067-.073.073.067c.068.063.081.079.067.079a.663.663 0 0 1-.073-.073zm2.526.046c0-.004.015-.02.034-.034.03-.024.031-.023.007.008-.026.032-.041.042-.041.026zm-5.184-.936c0-.023.005-.027.011-.012.006.014.005.03-.001.037-.007.007-.011-.005-.01-.025zm2.078-.427c0-.023.005-.028.011-.012.006.014.005.03-.001.037-.007.007-.011-.005-.01-.025zm5.67-.02c.001-.022.006-.027.012-.011.006.014.005.03-.001.037-.007.006-.011-.005-.01-.026zm-5.283-.985a.46.46 0 0 1 .063-.063l.063-.057-.057.063c-.053.059-.07.072-.07.057zm6.114-.085c.014-.005.03-.005.037.002.006.006-.005.01-.026.01-.022-.001-.027-.006-.011-.012zm.503 0a.075.075 0 0 1 .049 0c.013.006.002.01-.024.01-.027 0-.038-.004-.025-.01zm-4.986-.596c0-.004.017-.012.039-.018.021-.005.034-.002.028.008-.01.017-.067.025-.067.01zm2.192-.415c-.024-.03-.023-.032.007-.007.02.014.034.03.034.034 0 .016-.016.005-.04-.027zm-.214-.214c-.024-.03-.023-.031.008-.007a.14.14 0 0 1 .034.034c0 .016-.016.006-.042-.027zm-2.322-1.358a.11.11 0 0 1 .058 0c.013.006-.002.01-.034.01-.033 0-.043-.005-.024-.01zm3.926-.07l-.077-.082.083.077c.077.072.091.088.077.088a.847.847 0 0 1-.083-.082zm4.848-.782c.001-.023.006-.028.012-.012.006.014.005.03-.002.037-.006.007-.01-.005-.01-.025zM18.84 8.65c0-.032.005-.043.01-.024a.11.11 0 0 1 0 .058c-.006.014-.01-.002-.01-.034zm7.475-.312c.001-.023.006-.028.012-.012.006.014.005.03-.002.037-.006.007-.01-.005-.01-.025zm-7.475-.037c0-.033.005-.043.01-.024a.11.11 0 0 1 0 .058c-.006.013-.01-.002-.01-.034zm3.517-1.442a.429.429 0 0 1 .106 0c.03.005.006.008-.053.008s-.083-.003-.053-.008zm2.925-.855c-.024-.03-.024-.032.007-.007.032.025.043.04.027.04-.004 0-.02-.014-.034-.033zm-.203-.204l-.037-.044.043.037c.041.035.053.05.037.05a.214.214 0 0 1-.043-.043zm-2.615-1.02a.975.975 0 0 1 .155 0c.04.005.003.009-.083.008-.085 0-.118-.003-.072-.007z" fill="#767676"></path><path d="M6.466 24.653l-2.554-2.554 1.214-1.21c1.22-1.216 1.372-1.355 1.713-1.563.486-.297.926-.43 1.418-.43.287 0 .41.016.656.09.77.23 1.525.98 1.777 1.764.147.458.142.974-.013 1.462-.181.568-.477 1.005-1.127 1.665l-.402.408.703.704.702.704-.757.757c-.416.417-.761.758-.767.758-.005 0-1.159-1.15-2.563-2.555zm1.78-1.995c.221-.224.371-.393.41-.46.195-.35.148-.7-.131-.96-.288-.265-.589-.296-.932-.095-.084.049-.242.187-.476.417l-.35.344.553.554c.304.305.558.555.564.555.006 0 .169-.16.361-.355zm2.6-2.377a761.898 761.898 0 0 1-1.502-3.643c-.007-.03.144-.192.687-.735.384-.384.703-.697.711-.697.022 0 7.248 2.99 7.264 3.007.008.007-.352.38-.8.827l-.813.813-.618-.265-.618-.266-.87.87-.87.87.263.602c.144.33.262.61.262.62 0 .02-1.573 1.603-1.593 1.603-.006 0-.682-1.623-1.503-3.606zm2.203-1.34c.32-.32.393-.402.37-.418a49.46 49.46 0 0 0-1.414-.627 38.41 38.41 0 0 0 .636 1.446c.006 0 .19-.18.408-.4zm4.21-1.601a3.742 3.742 0 0 1-1.957-.816 5.096 5.096 0 0 1-.67-.668c-.861-1.083-1.076-2.463-.575-3.688.395-.965 1.29-1.83 2.3-2.22a4.378 4.378 0 0 1 1.208-.247l.157-.011.113.98c.062.54.108.988.101.995-.006.006-.1.02-.206.028-.598.05-1.03.236-1.402.603-.263.26-.405.553-.44.91-.053.532.152 1.066.569 1.482.389.389.84.595 1.303.595.238 0 .38-.024.574-.1.454-.174.91-.65 1.057-1.1l.034-.104-.23-.232-.232-.231-.461.46-.462.462-.592-.592-.592-.592 1.17-1.17 1.17-1.17 1.178 1.178 1.179 1.178-.01.099c-.09.92-.387 1.697-.91 2.38-.86 1.12-2.114 1.712-3.374 1.59zm5.005-5.07a3.884 3.884 0 0 1-1.98-.83c-1.45-1.177-1.857-3.172-.968-4.741a3.777 3.777 0 0 1 2.355-1.805 4.057 4.057 0 0 1 1.378-.068c1.236.175 2.331.983 2.896 2.136a3.658 3.658 0 0 1-.489 4 3.698 3.698 0 0 1-3.192 1.31zm.953-2.13a1.55 1.55 0 0 0 .954-.877c.203-.503.096-1.13-.273-1.61-.42-.544-1.083-.856-1.66-.78-.36.048-.635.183-.888.436a1.453 1.453 0 0 0-.37.585 1.797 1.797 0 0 0-.04.777c.151.713.77 1.334 1.49 1.495.18.04.628.027.787-.025z" fill="#17468f"></path></svg>