<svg xmlns="http://www.w3.org/2000/svg" height="32" viewBox="0 0 84.065 40" width="67"><path d="M47.854 15.947l-8.836.037-.908 2.288h.979s.547.183.328.764l-3.379 8.435h3.342l1.311-3.165h4.035s1.963-.035 3.055-1.925l1.816-4.507c-.001-.001.581-1.531-1.743-1.927zm-2.077 3.233l-.943 2.145s-.182.583-1.092.583l-2.145-.073 1.381-3.454h2.328c.001.001.655.001.471.799zm13.414 1.455l1.891-4.652h-6.979s-2.799.289-3.562 2.109l-1.49 3.56s-.729 2.328 1.27 2.508h9.016l.945-2.251c-.001 0-1.708.215-1.091-1.274zm-3.74 1.274h-2.439s-.51-.073-.256-.948c0 0 .766-2.615 1.855-2.689l2.148.075-1.308 3.562z" fill="#323378"></path><path d="M71.283 18.405l-1.238-1.328c-.52-.471.045-.946.045-.946l.607-.426-1.555-1.663c-4.65 2.337-8.453 4.924-8.453 4.924-.721.877-.047 1.888-.047 1.888l2.947 3.058c.293.834-.561 1.012-.561 1.012l-2.094-.022-1.029 2.269c.537 0 3.73-.043 3.73-.043 2.9-1.462 3.711-2.634 3.711-2.634.518-.718-.023-1.46-.023-1.46-.383-.473.248-.674.248-.674 2.404-1.326 3.529-2.403 3.529-2.403.609-.744.183-1.552.183-1.552zm-3.508 1.211l-2.521 1.598c-.381.204-.605-.066-.605-.066l-1.012-1.15c-.27-.336.156-.833.156-.833l1.936-1.233c.854-.361 1.191.021 1.191.021l.855.83c.291.452 0 .833 0 .833zm16.006-.928s-2.518-2.5-3.127-2.742c0 0-1.35-.612-2.652.022 0 0-3.955 1.978-5.801 3.211 0 0-1.145.876-.719 2.003 0 0 2.338 2.722 3.057 3.056 0 0 .9.629 2.473.16 0 0 4.498-1.735 6.748-3.867 0 .002.674-.765.021-1.843zm-3.732 1.662c-.023.11-2.27 1.304-2.27 1.304-.719.382-1.236.048-1.236.048-.361-.203-1.08-1.079-1.08-1.079-.271-.295.02-.721.02-.721.451-.452 2.363-1.418 2.363-1.418.449-.291 1.168.069 1.168.069l1.035.947c.428.401 0 .85 0 .85z" fill="#323378"></path><path d="M37.617 15.991h-3.328s-2.111 5.149-2.314 5.845c0 0-.406 1.259.203 1.752 0 0 .652.652 1.371.652l2.318-.023.984-2.293h-.736s-.857-.179-.496-.989l1.998-4.944zm-1.527-3.328s1.236-.406 1.934.063c0 0 .9.539.178 1.508 0 0-.561.943-2.111.966 0 0-1.303.16-1.395-.922-.001 0-.069-1.102 1.394-1.615zm-4.319 3.841s-.449-.492-1.57-.586l-8.48.028-.875 2.337h.719s.787 0 .336 1.146l-3.148 8.048 3.307.022 1.215-3.305 4.295.021s1.234.138 2.357-1.235c0 0 1.711-2.72 2.162-4.768-.001.001.427-1.123-.318-1.708zm-3.441 2.724c0 .447-.852 2.066-.852 2.066-.428.585-1.129.585-1.129.585h-2.131l1.439-3.487h2.227c.764.026.446.836.446.836zm-9.439 1.326l1.863-4.607-6.699-.028c-1.014 0-2.137.519-2.137.519-1.303.63-1.594 1.531-1.594 1.531-.498.741-1.508 3.597-1.508 3.597-.586 1.417 0 1.911 0 1.911.561.786 1.641.764 1.641.764l8.588.022.947-2.27-1.059-.179c-.519-.249-.042-1.26-.042-1.26zm-3.78 1.281l-2.227.044s-.809-.044-.449-1.101c0 0 .408-1.416.855-1.89 0 0 .291-.539 1.168-.539l1.957.043-1.304 3.443zm-4.992-5.866l-.988 2.381H6.498s-.717-.136-1.17.878l-1.953 4.989L0 24.262l3.285-8.315 6.834.022z" fill="#E42834"></path></svg>