<svg class="" viewBox="0 0 32 32" xmlns="http://www.w3.org/2000/svg"><path fill='#3483fa' d="M15.9 22h16.1v2h-16.1c-0.479 2.301-2.491 4.005-4.9 4.005s-4.42-1.704-4.894-3.973l-0.006-0.032h-6.1v-2h6.1c0.479-2.301 2.491-4.005 4.9-4.005s4.421 1.704 4.894 3.973l0.006 0.032zM18.1 8c0.48-2.301 2.491-4.005 4.9-4.005s4.421 1.704 4.894 3.973l0.006 0.032h4.1v2h-4.1c-0.48 2.301-2.491 4.005-4.9 4.005s-4.421-1.704-4.894-3.973l-0.006-0.033h-18.1v-2h18.1zM23 12c1.657 0 3-1.343 3-3s-1.343-3-3-3v0c-1.657 0-3 1.343-3 3s1.343 3 3 3v0zM11 26c1.657 0 3-1.343 3-3s-1.343-3-3-3v0c-1.657 0-3 1.343-3 3s1.343 3 3 3v0z"></path></svg>