<svg xmlns="http://www.w3.org/2000/svg" height="20" fill="#3483fa" viewBox="0 0 20 20" width="20"><path d="M7.565 11.848a3.002 3.002 0 1 1 0-3.707l4.337-2.173a3.006 3.006 0 0 1 2.9-3.783 3.002 3.002 0 1 1-2.362 4.856L8.102 9.214a3.006 3.006 0 0 1 0 1.562l4.337 2.17a3.002 3.002 0 1 1-.537 1.073l-4.337-2.17zm-2.363-.05a1.802 1.802 0 1 0 0-3.605 1.802 1.802 0 0 0 0 3.604zm9.6 4.802a1.802 1.802 0 1 0 0-3.605 1.802 1.802 0 0 0 0 3.605zm0-9.61a1.802 1.802 0 1 0 0-3.605 1.802 1.802 0 0 0 0 3.605z" fill-rule="nonzero"></path></svg>